<mxfile host="app.diagrams.net" modified="2021-03-08T20:53:13.930Z" agent="5.0 (Macintosh; Intel Mac OS X 10_15_6) AppleWebKit/605.1.15 (KHTML, like Gecko) Version/14.0.3 Safari/605.1.15" etag="zAfDphVHyxAQYCci7m81" version="14.4.4" type="github">
  <diagram id="0_Pe4eXvfOU6qmhsP7j4" name="Page-1">
    <mxGraphModel dx="2148" dy="865" grid="1" gridSize="10" guides="1" tooltips="1" connect="1" arrows="1" fold="1" page="1" pageScale="1" pageWidth="850" pageHeight="1100" math="0" shadow="0">
      <root>
        <mxCell id="0" />
        <mxCell id="1" parent="0" />
        <mxCell id="f1VP-ZpTaFvrlX2AiYO5-24" value="" style="group" vertex="1" connectable="0" parent="1">
          <mxGeometry x="420" y="150" width="190" height="470" as="geometry" />
        </mxCell>
        <mxCell id="f1VP-ZpTaFvrlX2AiYO5-2" value="" style="rounded=1;whiteSpace=wrap;html=1;sketch=1;" vertex="1" parent="f1VP-ZpTaFvrlX2AiYO5-24">
          <mxGeometry width="190" height="470" as="geometry" />
        </mxCell>
        <mxCell id="f1VP-ZpTaFvrlX2AiYO5-6" value="" style="group;sketch=1;shadow=0;" vertex="1" connectable="0" parent="f1VP-ZpTaFvrlX2AiYO5-24">
          <mxGeometry x="20" y="10" width="150" height="130" as="geometry" />
        </mxCell>
        <mxCell id="f1VP-ZpTaFvrlX2AiYO5-5" value="" style="rounded=1;whiteSpace=wrap;html=1;" vertex="1" parent="f1VP-ZpTaFvrlX2AiYO5-6">
          <mxGeometry y="10" width="150" height="110" as="geometry" />
        </mxCell>
        <mxCell id="f1VP-ZpTaFvrlX2AiYO5-1" value="" style="aspect=fixed;html=1;points=[];align=center;image;fontSize=12;image=img/lib/mscae/Docker.svg;" vertex="1" parent="f1VP-ZpTaFvrlX2AiYO5-6">
          <mxGeometry x="12.199999999999989" y="80" width="37.8" height="31" as="geometry" />
        </mxCell>
        <mxCell id="f1VP-ZpTaFvrlX2AiYO5-3" value="" style="outlineConnect=0;fontColor=#232F3E;gradientColor=none;fillColor=#3334B9;strokeColor=none;dashed=0;verticalLabelPosition=bottom;verticalAlign=top;align=center;html=1;fontSize=12;fontStyle=0;aspect=fixed;pointerEvents=1;shape=mxgraph.aws4.rds_mysql_instance;" vertex="1" parent="f1VP-ZpTaFvrlX2AiYO5-6">
          <mxGeometry x="60" y="16" width="78" height="78" as="geometry" />
        </mxCell>
        <mxCell id="f1VP-ZpTaFvrlX2AiYO5-11" value="" style="group;sketch=1;" vertex="1" connectable="0" parent="f1VP-ZpTaFvrlX2AiYO5-24">
          <mxGeometry x="20" y="140" width="150" height="130" as="geometry" />
        </mxCell>
        <mxCell id="f1VP-ZpTaFvrlX2AiYO5-12" value="" style="rounded=1;whiteSpace=wrap;html=1;" vertex="1" parent="f1VP-ZpTaFvrlX2AiYO5-11">
          <mxGeometry y="10" width="150" height="120" as="geometry" />
        </mxCell>
        <mxCell id="f1VP-ZpTaFvrlX2AiYO5-13" value="" style="aspect=fixed;html=1;points=[];align=center;image;fontSize=12;image=img/lib/mscae/Docker.svg;" vertex="1" parent="f1VP-ZpTaFvrlX2AiYO5-11">
          <mxGeometry x="12.199999999999989" y="89" width="37.8" height="31" as="geometry" />
        </mxCell>
        <mxCell id="f1VP-ZpTaFvrlX2AiYO5-15" value="" style="shape=image;html=1;verticalAlign=top;verticalLabelPosition=bottom;labelBackgroundColor=#ffffff;imageAspect=0;aspect=fixed;image=https://cdn2.iconfinder.com/data/icons/oxygen/128x128/mimetypes/application-x-python.png" vertex="1" parent="f1VP-ZpTaFvrlX2AiYO5-11">
          <mxGeometry x="50" y="16" width="88" height="88" as="geometry" />
        </mxCell>
        <mxCell id="f1VP-ZpTaFvrlX2AiYO5-21" value="" style="group;sketch=1;" vertex="1" connectable="0" parent="f1VP-ZpTaFvrlX2AiYO5-24">
          <mxGeometry x="25" y="290" width="140" height="110" as="geometry" />
        </mxCell>
        <mxCell id="f1VP-ZpTaFvrlX2AiYO5-16" value="" style="rounded=1;whiteSpace=wrap;html=1;" vertex="1" parent="f1VP-ZpTaFvrlX2AiYO5-21">
          <mxGeometry width="140" height="110" as="geometry" />
        </mxCell>
        <mxCell id="f1VP-ZpTaFvrlX2AiYO5-17" value="" style="aspect=fixed;html=1;points=[];align=center;image;fontSize=12;image=img/lib/mscae/Docker.svg;" vertex="1" parent="f1VP-ZpTaFvrlX2AiYO5-21">
          <mxGeometry x="10" y="70" width="37.8" height="31" as="geometry" />
        </mxCell>
        <mxCell id="f1VP-ZpTaFvrlX2AiYO5-18" value="" style="shape=image;html=1;verticalAlign=top;verticalLabelPosition=bottom;labelBackgroundColor=#ffffff;imageAspect=0;aspect=fixed;image=https://cdn4.iconfinder.com/data/icons/essential-3/32/367-Computer-128.png;sketch=1;" vertex="1" parent="f1VP-ZpTaFvrlX2AiYO5-21">
          <mxGeometry x="50" y="10" width="68" height="68" as="geometry" />
        </mxCell>
        <mxCell id="f1VP-ZpTaFvrlX2AiYO5-22" value="Geliştirme Ortamı" style="text;html=1;strokeColor=none;align=center;verticalAlign=middle;whiteSpace=wrap;rounded=0;fontFamily=Comic Sans MS;sketch=1;fontSize=14;fontStyle=1" vertex="1" parent="f1VP-ZpTaFvrlX2AiYO5-24">
          <mxGeometry x="80" y="420" width="40" height="20" as="geometry" />
        </mxCell>
        <mxCell id="f1VP-ZpTaFvrlX2AiYO5-26" style="edgeStyle=orthogonalEdgeStyle;orthogonalLoop=1;jettySize=auto;html=1;exitX=1;exitY=0.3333333333333333;exitDx=0;exitDy=0;exitPerimeter=0;entryX=0;entryY=0.5;entryDx=0;entryDy=0;fontFamily=Comic Sans MS;fontSize=14;curved=1;sketch=1;" edge="1" parent="1" source="f1VP-ZpTaFvrlX2AiYO5-25" target="f1VP-ZpTaFvrlX2AiYO5-31">
          <mxGeometry relative="1" as="geometry" />
        </mxCell>
        <mxCell id="f1VP-ZpTaFvrlX2AiYO5-25" value="Actor" style="shape=umlActor;verticalLabelPosition=bottom;verticalAlign=top;html=1;outlineConnect=0;rounded=0;shadow=0;sketch=1;fillColor=none;fontFamily=Comic Sans MS;fontSize=14;" vertex="1" parent="1">
          <mxGeometry x="-80" y="70" width="30" height="60" as="geometry" />
        </mxCell>
        <mxCell id="f1VP-ZpTaFvrlX2AiYO5-32" style="edgeStyle=orthogonalEdgeStyle;curved=1;sketch=1;orthogonalLoop=1;jettySize=auto;html=1;entryX=0;entryY=0.5;entryDx=0;entryDy=0;fontFamily=Comic Sans MS;fontSize=14;" edge="1" parent="1" source="f1VP-ZpTaFvrlX2AiYO5-31" target="f1VP-ZpTaFvrlX2AiYO5-2">
          <mxGeometry relative="1" as="geometry" />
        </mxCell>
        <mxCell id="f1VP-ZpTaFvrlX2AiYO5-33" value="docker-compose up" style="edgeLabel;html=1;align=center;verticalAlign=middle;resizable=0;points=[];fontSize=14;fontFamily=Comic Sans MS;" vertex="1" connectable="0" parent="f1VP-ZpTaFvrlX2AiYO5-32">
          <mxGeometry x="-0.2804" relative="1" as="geometry">
            <mxPoint as="offset" />
          </mxGeometry>
        </mxCell>
        <mxCell id="f1VP-ZpTaFvrlX2AiYO5-31" value="" style="shape=image;html=1;verticalAlign=top;verticalLabelPosition=bottom;labelBackgroundColor=#ffffff;imageAspect=0;aspect=fixed;image=https://cdn4.iconfinder.com/data/icons/essential-3/32/356-Document_Code-128.png;rounded=0;shadow=0;sketch=1;fillColor=#999999;fontFamily=Comic Sans MS;fontSize=14;" vertex="1" parent="1">
          <mxGeometry x="170" y="30" width="78" height="78" as="geometry" />
        </mxCell>
      </root>
    </mxGraphModel>
  </diagram>
</mxfile>
